<svg width="716" height="715" viewBox="0 0 716 715" fill="none" xmlns="http://www.w3.org/2000/svg">
<rect x="0.666687" width="715" height="715" rx="64" fill="#313131"/>
<g filter="url(#filter0_d_9_1278)">
<path d="M315.333 144H166C154.218 144 144.667 153.551 144.667 165.333V314.667C144.667 326.449 154.218 336 166 336H315.333C327.115 336 336.667 326.449 336.667 314.667V165.333C336.667 153.551 327.115 144 315.333 144Z" fill="#7AC0F8"/>
</g>
<g filter="url(#filter1_d_9_1278)">
<path d="M571.667 240C571.667 186.981 528.686 144 475.667 144C422.647 144 379.667 186.981 379.667 240C379.667 293.019 422.647 336 475.667 336C528.686 336 571.667 293.019 571.667 240Z" fill="#2670FF"/>
</g>
<g filter="url(#filter2_d_9_1278)">
<path d="M315.333 379H166C154.218 379 144.667 388.551 144.667 400.333V549.667C144.667 561.449 154.218 571 166 571H315.333C327.115 571 336.667 561.449 336.667 549.667V400.333C336.667 388.551 327.115 379 315.333 379Z" fill="#FFB74D"/>
</g>
<g filter="url(#filter3_d_9_1278)">
<path d="M550.333 379H401C389.218 379 379.667 388.551 379.667 400.333V549.667C379.667 561.449 389.218 571 401 571H550.333C562.115 571 571.667 561.449 571.667 549.667V400.333C571.667 388.551 562.115 379 550.333 379Z" fill="#E10050"/>
</g>
<defs>
<filter id="filter0_d_9_1278" x="144.667" y="144" width="208" height="208" filterUnits="userSpaceOnUse" color-interpolation-filters="sRGB">
<feFlood flood-opacity="0" result="BackgroundImageFix"/>
<feColorMatrix in="SourceAlpha" type="matrix" values="0 0 0 0 0 0 0 0 0 0 0 0 0 0 0 0 0 0 127 0" result="hardAlpha"/>
<feOffset dx="16" dy="16"/>
<feColorMatrix type="matrix" values="0 0 0 0 0 0 0 0 0 0 0 0 0 0 0 0 0 0 0.25 0"/>
<feBlend mode="normal" in2="BackgroundImageFix" result="effect1_dropShadow_9_1278"/>
<feBlend mode="normal" in="SourceGraphic" in2="effect1_dropShadow_9_1278" result="shape"/>
</filter>
<filter id="filter1_d_9_1278" x="379.667" y="144" width="208" height="208" filterUnits="userSpaceOnUse" color-interpolation-filters="sRGB">
<feFlood flood-opacity="0" result="BackgroundImageFix"/>
<feColorMatrix in="SourceAlpha" type="matrix" values="0 0 0 0 0 0 0 0 0 0 0 0 0 0 0 0 0 0 127 0" result="hardAlpha"/>
<feOffset dx="16" dy="16"/>
<feColorMatrix type="matrix" values="0 0 0 0 0 0 0 0 0 0 0 0 0 0 0 0 0 0 0.25 0"/>
<feBlend mode="normal" in2="BackgroundImageFix" result="effect1_dropShadow_9_1278"/>
<feBlend mode="normal" in="SourceGraphic" in2="effect1_dropShadow_9_1278" result="shape"/>
</filter>
<filter id="filter2_d_9_1278" x="144.667" y="379" width="208" height="208" filterUnits="userSpaceOnUse" color-interpolation-filters="sRGB">
<feFlood flood-opacity="0" result="BackgroundImageFix"/>
<feColorMatrix in="SourceAlpha" type="matrix" values="0 0 0 0 0 0 0 0 0 0 0 0 0 0 0 0 0 0 127 0" result="hardAlpha"/>
<feOffset dx="16" dy="16"/>
<feColorMatrix type="matrix" values="0 0 0 0 0 0 0 0 0 0 0 0 0 0 0 0 0 0 0.25 0"/>
<feBlend mode="normal" in2="BackgroundImageFix" result="effect1_dropShadow_9_1278"/>
<feBlend mode="normal" in="SourceGraphic" in2="effect1_dropShadow_9_1278" result="shape"/>
</filter>
<filter id="filter3_d_9_1278" x="379.667" y="379" width="208" height="208" filterUnits="userSpaceOnUse" color-interpolation-filters="sRGB">
<feFlood flood-opacity="0" result="BackgroundImageFix"/>
<feColorMatrix in="SourceAlpha" type="matrix" values="0 0 0 0 0 0 0 0 0 0 0 0 0 0 0 0 0 0 127 0" result="hardAlpha"/>
<feOffset dx="16" dy="16"/>
<feColorMatrix type="matrix" values="0 0 0 0 0 0 0 0 0 0 0 0 0 0 0 0 0 0 0.25 0"/>
<feBlend mode="normal" in2="BackgroundImageFix" result="effect1_dropShadow_9_1278"/>
<feBlend mode="normal" in="SourceGraphic" in2="effect1_dropShadow_9_1278" result="shape"/>
</filter>
</defs>
</svg>
